<?xml version="1.0" standalone="no"?>
<!DOCTYPE svg PUBLIC "-//W3C//DTD SVG 20010904//EN"
 "http://www.w3.org/TR/2001/REC-SVG-20010904/DTD/svg10.dtd">
<svg version="1.0" xmlns="http://www.w3.org/2000/svg"
 width="631.000000pt" height="631.000000pt" viewBox="0 0 631.000000 631.000000"
 preserveAspectRatio="xMidYMid meet">
<metadata>
Created by potrace 1.14, written by Peter Selinger 2001-2017
</metadata>
<g transform="translate(0.000000,631.000000) scale(0.100000,-0.100000)"
fill="#000000" stroke="none">
<path d="M2969 6306 c-2 -2 -49 -7 -104 -11 -214 -15 -599 -99 -775 -169 -19
-8 -78 -31 -130 -51 -501 -196 -991 -574 -1334 -1030 -25 -33 -49 -64 -53 -70
-18 -22 -132 -204 -173 -274 -178 -308 -342 -795 -376 -1116 -1 -11 -6 -49
-10 -85 -5 -36 -9 -177 -9 -315 1 -286 7 -370 45 -590 32 -178 55 -269 112
-440 237 -712 721 -1314 1366 -1704 189 -114 319 -176 532 -256 101 -38 328
-105 400 -119 14 -3 36 -7 50 -10 14 -3 66 -12 115 -21 90 -15 108 -18 260
-34 79 -9 488 -7 555 2 19 3 66 8 104 12 38 3 73 8 76 10 4 2 29 7 56 10 114
16 311 64 451 110 219 74 452 177 603 267 50 30 259 166 273 178 7 6 43 33 81
62 38 28 76 58 86 67 9 9 43 39 75 66 64 55 250 243 313 317 193 227 386 541
507 823 89 208 186 556 210 750 3 28 8 64 10 80 15 101 18 149 20 325 1 108
-2 227 -6 265 -4 39 -10 105 -14 148 -3 43 -8 88 -10 100 -8 47 -35 193 -40
222 -26 134 -105 384 -167 535 -47 113 -164 348 -184 371 -8 8 -14 19 -14 23
0 4 -13 27 -30 51 -16 24 -30 48 -30 54 0 6 -4 11 -9 11 -5 0 -11 8 -13 18 -5
18 -180 255 -207 282 -9 8 -32 35 -52 60 -56 70 -235 245 -329 324 -47 39 -87
73 -90 76 -13 15 -196 143 -284 199 -375 241 -868 411 -1351 466 -58 7 -501
16 -506 11z"/>
</g>
</svg>
